<?xml version="1.0" encoding="UTF-8" standalone="no"?>
<!-- Created with Inkscape (http://www.inkscape.org/) -->

<svg
   width="7.2304897in"
   height="6.202106in"
   viewBox="0 0 183.65444 157.53349"
   version="1.1"
   id="svg5"
   xmlns="http://www.w3.org/2000/svg"
   xmlns:svg="http://www.w3.org/2000/svg">
  <defs
     id="defs2" />
  <g
     id="g4678"
     transform="translate(-13.17278,58.971045)">
    <rect
       style="fill:none;stroke:#000000;stroke-width:1.31736;stroke-dasharray:none;stroke-opacity:1"
       id="rect4676"
       width="182.33708"
       height="156.21611"
       x="13.831459"
       y="-58.31237"
       ry="18.540499" />
    <g
       id="g4674"
       transform="matrix(0.97240918,0,0,0.91660083,-1.6089908,7.0770962)"
       style="stroke-width:1.05922;stroke-dasharray:none">
      <path
         style="fill:none;stroke:#000000;stroke-width:1.05922;stroke-dasharray:none;stroke-opacity:1"
         id="path4666"
         d="M 89.892912,80.772933 A 33.114693,33.114693 0 0 1 44.054443,71.430491 33.114693,33.114693 0 0 1 53.298226,25.572025 33.114693,33.114693 0 0 1 99.176477,34.717108 33.114693,33.114693 0 0 1 90.130138,80.614931" />
      <path
         style="fill:none;stroke:#000000;stroke-width:1.05922;stroke-dasharray:none;stroke-opacity:1"
         id="path4668"
         d="m 165.8509,80.772933 a 33.114693,33.114693 0 0 1 -45.83847,-9.342442 33.114693,33.114693 0 0 1 9.24378,-45.858466 33.114693,33.114693 0 0 1 45.87825,9.145083 33.114693,33.114693 0 0 1 -9.04634,45.897823" />
      <path
         style="fill:none;stroke:#000000;stroke-width:1.05922;stroke-dasharray:none;stroke-opacity:1"
         id="path4670"
         d="m 153.26434,61.697968 a 10.261325,10.261325 0 0 1 -14.20408,-2.894964 10.261325,10.261325 0 0 1 2.8644,-14.210267 10.261325,10.261325 0 0 1 14.21639,2.833808 10.261325,10.261325 0 0 1 -2.80321,14.222462" />
      <path
         style="fill:none;stroke:#000000;stroke-width:1.05922;stroke-dasharray:none;stroke-opacity:1"
         id="path4672"
         d="m 77.306343,61.697968 a 10.261325,10.261325 0 0 1 -14.204071,-2.894964 10.261325,10.261325 0 0 1 2.864392,-14.210267 10.261325,10.261325 0 0 1 14.216398,2.833808 10.261325,10.261325 0 0 1 -2.80321,14.222462" />
    </g>
    <g
       id="g4695"
       transform="matrix(0.97240919,0,0,0.91660082,-1.6089904,-64.360403)"
       style="stroke-width:1.05922;stroke-dasharray:none">
      <path
         style="fill:none;stroke:#000000;stroke-width:1.05922;stroke-dasharray:none;stroke-opacity:1"
         id="path4687"
         d="M 89.892912,80.772933 A 33.114693,33.114693 0 0 1 44.054443,71.430491 33.114693,33.114693 0 0 1 53.298226,25.572025 33.114693,33.114693 0 0 1 99.176477,34.717108 33.114693,33.114693 0 0 1 90.130138,80.614931" />
      <path
         style="fill:none;stroke:#000000;stroke-width:1.05922;stroke-dasharray:none;stroke-opacity:1"
         id="path4689"
         d="m 165.8509,80.772933 a 33.114693,33.114693 0 0 1 -45.83847,-9.342442 33.114693,33.114693 0 0 1 9.24378,-45.858466 33.114693,33.114693 0 0 1 45.87825,9.145083 33.114693,33.114693 0 0 1 -9.04634,45.897823" />
      <path
         style="fill:none;stroke:#000000;stroke-width:1.05922;stroke-dasharray:none;stroke-opacity:1"
         id="path4691"
         d="m 153.26434,61.697968 a 10.261325,10.261325 0 0 1 -14.20408,-2.894964 10.261325,10.261325 0 0 1 2.8644,-14.210267 10.261325,10.261325 0 0 1 14.21639,2.833808 10.261325,10.261325 0 0 1 -2.80321,14.222462" />
      <path
         style="fill:none;stroke:#000000;stroke-width:1.05922;stroke-dasharray:none;stroke-opacity:1"
         id="path4693"
         d="m 77.306343,61.697968 a 10.261325,10.261325 0 0 1 -14.204071,-2.894964 10.261325,10.261325 0 0 1 2.864392,-14.210267 10.261325,10.261325 0 0 1 14.216398,2.833808 10.261325,10.261325 0 0 1 -2.80321,14.222462" />
    </g>
  </g>
</svg>
