<?xml version="1.0" encoding="UTF-8" standalone="no"?>
<!-- Created with Inkscape (http://www.inkscape.org/) -->

<svg
   width="694.12701"
   height="1157.402"
   viewBox="0 0 183.65444 306.22927"
   version="1.1"
   id="svg5"
   inkscape:version="1.2 (dc2aeda, 2022-05-15)"
   sodipodi:docname="4x12.svg"
   xmlns:inkscape="http://www.inkscape.org/namespaces/inkscape"
   xmlns:sodipodi="http://sodipodi.sourceforge.net/DTD/sodipodi-0.dtd"
   xmlns="http://www.w3.org/2000/svg"
   xmlns:svg="http://www.w3.org/2000/svg">
  <sodipodi:namedview
     id="namedview7"
     pagecolor="#505050"
     bordercolor="#eeeeee"
     borderopacity="1"
     inkscape:showpageshadow="0"
     inkscape:pageopacity="0"
     inkscape:pagecheckerboard="0"
     inkscape:deskcolor="#505050"
     inkscape:document-units="mm"
     showgrid="false"
     inkscape:zoom="0.5"
     inkscape:cx="402"
     inkscape:cy="695"
     inkscape:window-width="1920"
     inkscape:window-height="951"
     inkscape:window-x="1920"
     inkscape:window-y="25"
     inkscape:window-maximized="1"
     inkscape:current-layer="g4678" />
  <defs
     id="defs2" />
  <g
     inkscape:label="Layer 3"
     inkscape:groupmode="layer"
     id="g4678"
     transform="translate(-13.172781,58.971046)">
    <rect
       style="fill:none;stroke:#000000;stroke-width:1.83628;stroke-dasharray:none;stroke-opacity:1"
       id="rect4676"
       width="181.81816"
       height="304.39301"
       x="14.090921"
       y="-58.052906"
       ry="36.126865" />
    <g
       id="g867">
      <g
         id="g4674"
         transform="matrix(0.97240918,0,0,0.91660083,-1.6089908,7.0770962)"
         style="stroke-width:1.05922;stroke-dasharray:none">
        <path
           style="fill:none;stroke:#000000;stroke-width:1.05922;stroke-dasharray:none;stroke-opacity:1"
           id="path4666"
           sodipodi:type="arc"
           sodipodi:cx="71.654961"
           sodipodi:cy="53.133106"
           sodipodi:rx="33.114693"
           sodipodi:ry="33.114693"
           sodipodi:start="0.98753255"
           sodipodi:end="0.97892526"
           sodipodi:open="true"
           sodipodi:arc-type="arc"
           d="M 89.892912,80.772933 A 33.114693,33.114693 0 0 1 44.054443,71.430491 33.114693,33.114693 0 0 1 53.298226,25.572025 33.114693,33.114693 0 0 1 99.176477,34.717108 33.114693,33.114693 0 0 1 90.130138,80.614931" />
        <path
           style="fill:none;stroke:#000000;stroke-width:1.05922;stroke-dasharray:none;stroke-opacity:1"
           id="path4668"
           sodipodi:type="arc"
           sodipodi:cx="147.61295"
           sodipodi:cy="53.133106"
           sodipodi:rx="33.114693"
           sodipodi:ry="33.114693"
           sodipodi:start="0.98753255"
           sodipodi:end="0.97892526"
           sodipodi:open="true"
           sodipodi:arc-type="arc"
           d="m 165.8509,80.772933 a 33.114693,33.114693 0 0 1 -45.83847,-9.342442 33.114693,33.114693 0 0 1 9.24378,-45.858466 33.114693,33.114693 0 0 1 45.87825,9.145083 33.114693,33.114693 0 0 1 -9.04634,45.897823" />
        <path
           style="fill:none;stroke:#000000;stroke-width:1.05922;stroke-dasharray:none;stroke-opacity:1"
           id="path4670"
           sodipodi:type="arc"
           sodipodi:cx="147.6129"
           sodipodi:cy="53.133152"
           sodipodi:rx="10.261325"
           sodipodi:ry="10.261325"
           sodipodi:start="0.98753255"
           sodipodi:end="0.97892526"
           sodipodi:open="true"
           sodipodi:arc-type="arc"
           d="m 153.26434,61.697968 a 10.261325,10.261325 0 0 1 -14.20408,-2.894964 10.261325,10.261325 0 0 1 2.8644,-14.210267 10.261325,10.261325 0 0 1 14.21639,2.833808 10.261325,10.261325 0 0 1 -2.80321,14.222462" />
        <path
           style="fill:none;stroke:#000000;stroke-width:1.05922;stroke-dasharray:none;stroke-opacity:1"
           id="path4672"
           sodipodi:type="arc"
           sodipodi:cx="71.654907"
           sodipodi:cy="53.133152"
           sodipodi:rx="10.261325"
           sodipodi:ry="10.261325"
           sodipodi:start="0.98753255"
           sodipodi:end="0.97892526"
           sodipodi:open="true"
           sodipodi:arc-type="arc"
           d="m 77.306343,61.697968 a 10.261325,10.261325 0 0 1 -14.204071,-2.894964 10.261325,10.261325 0 0 1 2.864392,-14.210267 10.261325,10.261325 0 0 1 14.216398,2.833808 10.261325,10.261325 0 0 1 -2.80321,14.222462" />
      </g>
      <g
         id="g4695"
         transform="matrix(0.97240919,0,0,0.91660082,-1.6089904,-64.360403)"
         style="stroke-width:1.05922;stroke-dasharray:none">
        <path
           style="fill:none;stroke:#000000;stroke-width:1.05922;stroke-dasharray:none;stroke-opacity:1"
           id="path4687"
           sodipodi:type="arc"
           sodipodi:cx="71.654961"
           sodipodi:cy="53.133106"
           sodipodi:rx="33.114693"
           sodipodi:ry="33.114693"
           sodipodi:start="0.98753255"
           sodipodi:end="0.97892526"
           sodipodi:open="true"
           sodipodi:arc-type="arc"
           d="M 89.892912,80.772933 A 33.114693,33.114693 0 0 1 44.054443,71.430491 33.114693,33.114693 0 0 1 53.298226,25.572025 33.114693,33.114693 0 0 1 99.176477,34.717108 33.114693,33.114693 0 0 1 90.130138,80.614931" />
        <path
           style="fill:none;stroke:#000000;stroke-width:1.05922;stroke-dasharray:none;stroke-opacity:1"
           id="path4689"
           sodipodi:type="arc"
           sodipodi:cx="147.61295"
           sodipodi:cy="53.133106"
           sodipodi:rx="33.114693"
           sodipodi:ry="33.114693"
           sodipodi:start="0.98753255"
           sodipodi:end="0.97892526"
           sodipodi:open="true"
           sodipodi:arc-type="arc"
           d="m 165.8509,80.772933 a 33.114693,33.114693 0 0 1 -45.83847,-9.342442 33.114693,33.114693 0 0 1 9.24378,-45.858466 33.114693,33.114693 0 0 1 45.87825,9.145083 33.114693,33.114693 0 0 1 -9.04634,45.897823" />
        <path
           style="fill:none;stroke:#000000;stroke-width:1.05922;stroke-dasharray:none;stroke-opacity:1"
           id="path4691"
           sodipodi:type="arc"
           sodipodi:cx="147.6129"
           sodipodi:cy="53.133152"
           sodipodi:rx="10.261325"
           sodipodi:ry="10.261325"
           sodipodi:start="0.98753255"
           sodipodi:end="0.97892526"
           sodipodi:open="true"
           sodipodi:arc-type="arc"
           d="m 153.26434,61.697968 a 10.261325,10.261325 0 0 1 -14.20408,-2.894964 10.261325,10.261325 0 0 1 2.8644,-14.210267 10.261325,10.261325 0 0 1 14.21639,2.833808 10.261325,10.261325 0 0 1 -2.80321,14.222462" />
        <path
           style="fill:none;stroke:#000000;stroke-width:1.05922;stroke-dasharray:none;stroke-opacity:1"
           id="path4693"
           sodipodi:type="arc"
           sodipodi:cx="71.654907"
           sodipodi:cy="53.133152"
           sodipodi:rx="10.261325"
           sodipodi:ry="10.261325"
           sodipodi:start="0.98753255"
           sodipodi:end="0.97892526"
           sodipodi:open="true"
           sodipodi:arc-type="arc"
           d="m 77.306343,61.697968 a 10.261325,10.261325 0 0 1 -14.204071,-2.894964 10.261325,10.261325 0 0 1 2.864392,-14.210267 10.261325,10.261325 0 0 1 14.216398,2.833808 10.261325,10.261325 0 0 1 -2.80321,14.222462" />
      </g>
    </g>
    <g
       id="g889"
       transform="translate(0,144.99201)">
      <g
         id="g877"
         transform="matrix(0.97240918,0,0,0.91660083,-1.6089908,7.0770962)"
         style="stroke-width:1.05922;stroke-dasharray:none">
        <path
           style="fill:none;stroke:#000000;stroke-width:1.05922;stroke-dasharray:none;stroke-opacity:1"
           id="path869"
           sodipodi:type="arc"
           sodipodi:cx="71.654961"
           sodipodi:cy="53.133106"
           sodipodi:rx="33.114693"
           sodipodi:ry="33.114693"
           sodipodi:start="0.98753255"
           sodipodi:end="0.97892526"
           sodipodi:open="true"
           sodipodi:arc-type="arc"
           d="M 89.892912,80.772933 A 33.114693,33.114693 0 0 1 44.054443,71.430491 33.114693,33.114693 0 0 1 53.298226,25.572025 33.114693,33.114693 0 0 1 99.176477,34.717108 33.114693,33.114693 0 0 1 90.130138,80.614931" />
        <path
           style="fill:none;stroke:#000000;stroke-width:1.05922;stroke-dasharray:none;stroke-opacity:1"
           id="path871"
           sodipodi:type="arc"
           sodipodi:cx="147.61295"
           sodipodi:cy="53.133106"
           sodipodi:rx="33.114693"
           sodipodi:ry="33.114693"
           sodipodi:start="0.98753255"
           sodipodi:end="0.97892526"
           sodipodi:open="true"
           sodipodi:arc-type="arc"
           d="m 165.8509,80.772933 a 33.114693,33.114693 0 0 1 -45.83847,-9.342442 33.114693,33.114693 0 0 1 9.24378,-45.858466 33.114693,33.114693 0 0 1 45.87825,9.145083 33.114693,33.114693 0 0 1 -9.04634,45.897823" />
        <path
           style="fill:none;stroke:#000000;stroke-width:1.05922;stroke-dasharray:none;stroke-opacity:1"
           id="path873"
           sodipodi:type="arc"
           sodipodi:cx="147.6129"
           sodipodi:cy="53.133152"
           sodipodi:rx="10.261325"
           sodipodi:ry="10.261325"
           sodipodi:start="0.98753255"
           sodipodi:end="0.97892526"
           sodipodi:open="true"
           sodipodi:arc-type="arc"
           d="m 153.26434,61.697968 a 10.261325,10.261325 0 0 1 -14.20408,-2.894964 10.261325,10.261325 0 0 1 2.8644,-14.210267 10.261325,10.261325 0 0 1 14.21639,2.833808 10.261325,10.261325 0 0 1 -2.80321,14.222462" />
        <path
           style="fill:none;stroke:#000000;stroke-width:1.05922;stroke-dasharray:none;stroke-opacity:1"
           id="path875"
           sodipodi:type="arc"
           sodipodi:cx="71.654907"
           sodipodi:cy="53.133152"
           sodipodi:rx="10.261325"
           sodipodi:ry="10.261325"
           sodipodi:start="0.98753255"
           sodipodi:end="0.97892526"
           sodipodi:open="true"
           sodipodi:arc-type="arc"
           d="m 77.306343,61.697968 a 10.261325,10.261325 0 0 1 -14.204071,-2.894964 10.261325,10.261325 0 0 1 2.864392,-14.210267 10.261325,10.261325 0 0 1 14.216398,2.833808 10.261325,10.261325 0 0 1 -2.80321,14.222462" />
      </g>
      <g
         id="g887"
         transform="matrix(0.97240919,0,0,0.91660082,-1.6089904,-64.360403)"
         style="stroke-width:1.05922;stroke-dasharray:none">
        <path
           style="fill:none;stroke:#000000;stroke-width:1.05922;stroke-dasharray:none;stroke-opacity:1"
           id="path879"
           sodipodi:type="arc"
           sodipodi:cx="71.654961"
           sodipodi:cy="53.133106"
           sodipodi:rx="33.114693"
           sodipodi:ry="33.114693"
           sodipodi:start="0.98753255"
           sodipodi:end="0.97892526"
           sodipodi:open="true"
           sodipodi:arc-type="arc"
           d="M 89.892912,80.772933 A 33.114693,33.114693 0 0 1 44.054443,71.430491 33.114693,33.114693 0 0 1 53.298226,25.572025 33.114693,33.114693 0 0 1 99.176477,34.717108 33.114693,33.114693 0 0 1 90.130138,80.614931" />
        <path
           style="fill:none;stroke:#000000;stroke-width:1.05922;stroke-dasharray:none;stroke-opacity:1"
           id="path881"
           sodipodi:type="arc"
           sodipodi:cx="147.61295"
           sodipodi:cy="53.133106"
           sodipodi:rx="33.114693"
           sodipodi:ry="33.114693"
           sodipodi:start="0.98753255"
           sodipodi:end="0.97892526"
           sodipodi:open="true"
           sodipodi:arc-type="arc"
           d="m 165.8509,80.772933 a 33.114693,33.114693 0 0 1 -45.83847,-9.342442 33.114693,33.114693 0 0 1 9.24378,-45.858466 33.114693,33.114693 0 0 1 45.87825,9.145083 33.114693,33.114693 0 0 1 -9.04634,45.897823" />
        <path
           style="fill:none;stroke:#000000;stroke-width:1.05922;stroke-dasharray:none;stroke-opacity:1"
           id="path883"
           sodipodi:type="arc"
           sodipodi:cx="147.6129"
           sodipodi:cy="53.133152"
           sodipodi:rx="10.261325"
           sodipodi:ry="10.261325"
           sodipodi:start="0.98753255"
           sodipodi:end="0.97892526"
           sodipodi:open="true"
           sodipodi:arc-type="arc"
           d="m 153.26434,61.697968 a 10.261325,10.261325 0 0 1 -14.20408,-2.894964 10.261325,10.261325 0 0 1 2.8644,-14.210267 10.261325,10.261325 0 0 1 14.21639,2.833808 10.261325,10.261325 0 0 1 -2.80321,14.222462" />
        <path
           style="fill:none;stroke:#000000;stroke-width:1.05922;stroke-dasharray:none;stroke-opacity:1"
           id="path885"
           sodipodi:type="arc"
           sodipodi:cx="71.654907"
           sodipodi:cy="53.133152"
           sodipodi:rx="10.261325"
           sodipodi:ry="10.261325"
           sodipodi:start="0.98753255"
           sodipodi:end="0.97892526"
           sodipodi:open="true"
           sodipodi:arc-type="arc"
           d="m 77.306343,61.697968 a 10.261325,10.261325 0 0 1 -14.204071,-2.894964 10.261325,10.261325 0 0 1 2.864392,-14.210267 10.261325,10.261325 0 0 1 14.216398,2.833808 10.261325,10.261325 0 0 1 -2.80321,14.222462" />
      </g>
    </g>
  </g>
</svg>
