<?xml version="1.0" encoding="UTF-8" standalone="no"?>
<!-- Created with Inkscape (http://www.inkscape.org/) -->

<svg
   id="svg5"
   version="1.1"
   viewBox="0 0 160.45976 85.826782"
   height="85.826782mm"
   width="160.45976mm"
   xmlns="http://www.w3.org/2000/svg"
   xmlns:svg="http://www.w3.org/2000/svg">
  <defs
     id="defs2">
    <clipPath
       id="clipPath2752">
      <rect
         style="fill:none;stroke:#000000;stroke-width:1;stroke-dasharray:none;stroke-opacity:1"
         width="159.45976"
         height="84.826782"
         x="25.270119"
         y="4.2041669"
         ry="11.635214"
         rx="0"
         id="rect10413" />
    </clipPath>
    <clipPath
       id="clipPath4724">
      <rect
         style="fill:none;stroke:#000000;stroke-width:1;stroke-dasharray:none;stroke-opacity:1"
         width="159.45976"
         height="84.826782"
         x="25.270119"
         y="4.2041669"
         ry="11.635214"
         rx="0"
         id="rect11104" />
    </clipPath>
    <clipPath
       id="clipPath6195">
      <rect
         style="fill:none;stroke:#000000;stroke-width:1;stroke-dasharray:none;stroke-opacity:1"
         width="159.45976"
         height="84.826782"
         x="25.270119"
         y="4.2041669"
         ry="11.635214"
         rx="0"
         id="rect11171" />
    </clipPath>
    <clipPath
       id="clipPath1099">
      <rect
         style="fill:none;stroke:#000000;stroke-width:1;stroke-dasharray:none;stroke-opacity:1"
         width="159.45976"
         height="84.826782"
         x="25.270119"
         y="4.2041669"
         ry="11.635214"
         rx="0"
         id="rect11326" />
    </clipPath>
    <clipPath
       id="clipPath1342">
      <rect
         style="fill:none;stroke:#000000;stroke-width:1;stroke-dasharray:none;stroke-opacity:1"
         width="159.45976"
         height="84.826782"
         x="25.270119"
         y="4.2041669"
         ry="11.635214"
         rx="0"
         id="rect11405" />
    </clipPath>
    <clipPath
       id="clipPath9366">
      <rect
         style="fill:none;stroke:#000000;stroke-width:1;stroke-dasharray:none;stroke-opacity:1"
         width="159.45976"
         height="84.826782"
         x="25.270119"
         y="4.2041669"
         ry="11.635214"
         rx="0"
         id="rect12007" />
    </clipPath>
  </defs>
  <g
     id="layer1"
     transform="translate(-24.770119,-3.7041669)">
    <path
       style="fill:none;stroke:#68423e;stroke-width:0.9;stroke-dasharray:none;stroke-opacity:1"
       d="m 25.2701,46.6176 c 7.5933,-7.5934 15.1867,-14.7033 22.78,-15.785 7.5933,-1.0817 15.1866,4.0234 22.78,11.31 7.5933,7.2867 15.1866,15.8439 22.7799,18.9913 7.593,3.1474 15.187,0.4682 22.78,-5.9262 7.593,-6.3944 15.187,-15.7111 22.78,-20.6713 7.593,-4.9601 15.187,-4.9222 22.78,0.0661 7.593,4.9882 15.187,14.3157 22.78,20.69"
       title="sin(x)"
       clip-path="url(#clipPath2752)"
       id="path10418"
       transform="matrix(1,0,0,2.1689126,0,-54.433391)" />
    <path
       style="fill:none;stroke:#69583f;stroke-width:0.8;stroke-dasharray:none;stroke-opacity:1"
       d="m 25.2701,46.6176 c 7.5933,-7.5934 15.1867,-14.4347 22.78,-14.1649 7.5933,0.2699 15.1866,7.6206 22.78,15.1943 7.5933,7.5737 15.1866,13.8808 22.7799,13.0606 7.593,-0.8203 15.187,-8.6294 22.78,-16.1435 7.593,-7.5141 15.187,-13.2537 22.78,-11.8873 7.593,1.3663 15.187,9.5926 22.78,17.0074 7.593,7.4148 15.187,12.5565 22.78,10.6513"
       title="sin(x*1.125)/1.125"
       clip-path="url(#clipPath4724)"
       id="path11110"
       transform="matrix(1,0,0,2.1689126,0,-54.433391)" />
    <path
       style="fill:none;stroke:#5f693f;stroke-width:0.7;stroke-dasharray:none;stroke-opacity:1"
       d="m 25.2701,46.6176 c 7.5933,-7.5934 15.1867,-13.9047 22.78,-11.7667 7.5933,2.1379 15.1866,12.0281 22.78,18.4136 7.5933,6.3856 15.1866,7.11 22.7799,1.3649 7.593,-5.7452 15.187,-16.0445 22.78,-19.1847 7.593,-3.1401 15.187,1.9535 22.78,9.4726 7.593,7.519 15.187,14.9409 22.78,13.8336 7.593,-1.1074 15.187,-10.3937 22.78,-17.2872"
       title="sin(x*1.3)/1.3"
       clip-path="url(#clipPath6195)"
       id="path11178"
       transform="matrix(1,0,0,2.1689126,0,-54.433391)" />
    <path
       style="fill:none;stroke:#3f695b;stroke-width:0.6;stroke-dasharray:none;stroke-opacity:1"
       d="m 25.2701,46.6176 c 7.5933,-7.5934 15.1867,-13.0421 22.78,-8.9382 7.5933,4.104 15.1866,15.4659 22.78,18.6157 7.5933,3.1499 15.1866,-3.7033 22.7799,-11.2177 7.593,-7.5143 15.187,-11.4561 22.78,-6.4699 7.593,4.9862 15.187,16.1072 22.78,18.2229 7.593,2.1157 15.187,-5.9837 22.78,-13.2606 7.593,-7.2769 15.187,-9.6285 22.78,-3.8652"
       title="sin(x*1.5)/1.5"
       clip-path="url(#clipPath1099)"
       id="path11334"
       transform="matrix(1,0,0,2.1689126,0,-54.433391)" />
    <path
       style="display:inline;fill:none;stroke:#3f4969;stroke-width:0.5;stroke-dasharray:none;stroke-opacity:1"
       d="m 25.2701,46.6176 c 7.5933,-7.5934 15.1867,-11.531 22.78,-5.4533 7.5933,6.0776 15.1866,16.3358 22.78,14.191 7.5933,-2.1449 15.1866,-14.6438 22.7799,-17.2848 7.593,-2.641 15.187,7.1277 22.78,13.5042 7.593,6.3765 15.187,3.2231 22.78,-4.3528 7.593,-7.576 15.187,-12.2921 22.78,-6.5298 7.593,5.7624 15.187,16.4724 22.78,14.8153"
       title="sin(x*1.75)/1.75"
       clip-path="url(#clipPath1342)"
       id="path11414"
       transform="matrix(1,0,0,2.1689126,0,-54.433391)" />
    <path
       style="fill:none;stroke:#693f69;stroke-width:0.4;stroke-dasharray:none;stroke-opacity:1"
       d="m 25.2701,46.6176 c 7.5933,-7.5934 15.1867,-9.5226 22.78,-2.2375 7.5933,7.2851 15.1866,12.924 22.78,6.5325 C 78.4234,44.5212 86.0167,35.6259 93.61,40.61 c 7.593,4.9842 15.187,16.421 22.78,13.2447 7.593,-3.1762 15.187,-16.2354 22.78,-15.1223 7.593,1.1131 15.187,14.7451 22.78,15.7846 7.593,1.0396 15.187,-12.0697 22.78,-15.1783"
       title="sin(x*2)/2"
       clip-path="url(#clipPath9366)"
       id="path12017"
       transform="matrix(1,0,0,2.1689126,0,-54.433391)" />
    <rect
       style="fill:none;fill-opacity:1;stroke:#000000;stroke-width:0.995743;stroke-dasharray:none;stroke-opacity:1"
       id="rect195"
       width="159.46402"
       height="84.103836"
       x="25.26799"
       y="4.5656385"
       ry="11.536052"
       rx="0" />
  </g>
</svg>
