<?xml version="1.0" encoding="UTF-8" standalone="no"?>
<!-- Created with Inkscape (http://www.inkscape.org/) -->

<svg
   width="300mm"
   height="300mm"
   viewBox="0 0 300 300"
   version="1.1"
   id="svg5"
   sodipodi:docname="logo.svg"
   inkscape:version="1.2.2 (b0a84865, 2022-12-01)"
   xmlns:inkscape="http://www.inkscape.org/namespaces/inkscape"
   xmlns:sodipodi="http://sodipodi.sourceforge.net/DTD/sodipodi-0.dtd"
   xmlns="http://www.w3.org/2000/svg"
   xmlns:svg="http://www.w3.org/2000/svg">
  <sodipodi:namedview
     id="namedview12"
     pagecolor="#505050"
     bordercolor="#eeeeee"
     borderopacity="1"
     inkscape:showpageshadow="0"
     inkscape:pageopacity="0"
     inkscape:pagecheckerboard="0"
     inkscape:deskcolor="#505050"
     inkscape:document-units="mm"
     showgrid="false"
     inkscape:zoom="0.54692254"
     inkscape:cx="609.77556"
     inkscape:cy="633.54492"
     inkscape:window-width="1920"
     inkscape:window-height="1027"
     inkscape:window-x="0"
     inkscape:window-y="25"
     inkscape:window-maximized="1"
     inkscape:current-layer="svg5" />
  <defs
     id="defs2" />
  <g
     id="g5903"
     transform="translate(1.3818359e-5)">
    <path
       id="circle5889"
       style="fill:none;stroke:#faebd7;stroke-width:2.64584;stroke-linecap:round;stroke-linejoin:round;stroke-opacity:1"
       d="M 298.67708,150 A 148.67708,148.67708 0 0 1 150,298.67708 148.67708,148.67708 0 0 1 1.3229218,150 148.67708,148.67708 0 0 1 150,1.3229218 148.67708,148.67708 0 0 1 298.67708,150 Z" />
    <rect
       style="fill:#faebd7;fill-opacity:1;stroke:none;stroke-width:1.32292;stroke-linecap:round;stroke-linejoin:round;stroke-dasharray:none;stroke-opacity:1"
       id="rect5891"
       width="8.2020798"
       height="274.48532"
       x="145.89896"
       y="12.757339"
       ry="5.7024436" />
    <path
       style="display:inline;fill:#faebd7;fill-opacity:1;stroke:none;stroke-width:1.19515;stroke-linecap:round;stroke-linejoin:round;stroke-dasharray:none;stroke-opacity:1"
       id="path5893"
       width="131.09282"
       height="6.6145835"
       x="12.060545"
       y="150"
       ry="3.3072917"
       class="UnoptimicedTransforms"
       d="M 15.367837,150 H 139.84607 c 1.83224,0 3.30729,1.47505 3.30729,3.30729 0,1.83224 -1.47505,3.30729 -3.30729,3.30729 H 15.367837 c -1.83224,0 -3.307292,-1.47505 -3.307292,-3.30729 0,-1.83224 1.475052,-3.30729 3.307292,-3.30729 z m 276.505003,0 H 167.39461 c -1.83224,0 -3.30729,1.47505 -3.30729,3.30729 0,1.83224 1.47505,3.30729 3.30729,3.30729 h 124.47823 c 1.83224,0 3.3073,-1.47505 3.3073,-3.30729 0,-1.83224 -1.47506,-3.30729 -3.3073,-3.30729 z"
       transform="matrix(0.99118054,0,0,1.2361347,-2.6108279,-12.395016)" />
    <path
       style="display:inline;fill:#faebd7;fill-opacity:1;stroke:none;stroke-width:1.19515;stroke-linecap:round;stroke-linejoin:round;stroke-dasharray:none;stroke-opacity:1"
       id="path5895"
       width="100.67928"
       height="6.6145835"
       x="42.474079"
       y="121.68396"
       ry="3.3072917"
       class="UnoptimicedTransforms"
       d="m 45.781371,121.68396 h 94.064699 c 1.83224,0 3.30729,1.47505 3.30729,3.30729 0,1.83224 -1.47505,3.30729 -3.30729,3.30729 H 45.781371 c -1.83224,0 -3.307292,-1.47505 -3.307292,-3.30729 0,-1.83224 1.475052,-3.30729 3.307292,-3.30729 z m 215.677939,0 h -94.0647 c -1.83224,0 -3.30729,1.47505 -3.30729,3.30729 0,1.83224 1.47505,3.30729 3.30729,3.30729 h 94.0647 c 1.83224,0 3.30729,-1.47505 3.30729,-3.30729 0,-1.83224 -1.47505,-3.30729 -3.30729,-3.30729 z"
       transform="matrix(0.99118054,0,0,1.2361347,-2.6108279,-12.395016)" />
    <path
       style="display:inline;fill:#faebd7;fill-opacity:1;stroke:none;stroke-width:1.19515;stroke-linecap:round;stroke-linejoin:round;stroke-dasharray:none;stroke-opacity:1"
       id="path5897"
       width="72.363235"
       height="6.6145835"
       x="70.790131"
       y="93.367912"
       ry="3.3072917"
       class="UnoptimicedTransforms"
       d="m 74.097422,93.367912 h 65.748648 c 1.83224,0 3.3073,1.475052 3.3073,3.307292 0,1.83224 -1.47506,3.307292 -3.3073,3.307292 H 74.097422 c -1.832239,0 -3.307291,-1.475052 -3.307291,-3.307292 0,-1.83224 1.475052,-3.307292 3.307291,-3.307292 z m 159.045838,0 h -65.74865 c -1.83224,0 -3.3073,1.475052 -3.3073,3.307292 0,1.83224 1.47506,3.307292 3.3073,3.307292 h 65.74865 c 1.83224,0 3.30729,-1.475052 3.30729,-3.307292 0,-1.83224 -1.47505,-3.307292 -3.30729,-3.307292 z"
       transform="matrix(0.99118054,0,0,1.2361347,-2.6108279,-12.395016)" />
    <path
       style="display:inline;fill:#faebd7;fill-opacity:1;stroke:none;stroke-width:1.19515;stroke-linecap:round;stroke-linejoin:round;stroke-dasharray:none;stroke-opacity:1"
       id="path5899"
       width="50.339642"
       height="6.6145835"
       x="92.813721"
       y="65.051872"
       ry="3.3072917"
       class="UnoptimicedTransforms"
       d="m 96.121012,65.051872 h 43.725058 c 1.83224,0 3.30729,1.475052 3.30729,3.307292 0,1.83224 -1.47505,3.307292 -3.30729,3.307292 H 96.121012 c -1.832239,0 -3.307291,-1.475052 -3.307291,-3.307292 0,-1.83224 1.475052,-3.307292 3.307291,-3.307292 z m 114.998658,0 h -43.72506 c -1.83224,0 -3.30729,1.475052 -3.30729,3.307292 0,1.83224 1.47505,3.307292 3.30729,3.307292 h 43.72506 c 1.83224,0 3.30729,-1.475052 3.30729,-3.307292 0,-1.83224 -1.47505,-3.307292 -3.30729,-3.307292 z"
       transform="matrix(0.99118054,0,0,1.2361347,-2.6108279,-12.395016)" />
    <path
       style="display:inline;fill:#faebd7;fill-opacity:1;stroke:none;stroke-width:1.19515;stroke-linecap:round;stroke-linejoin:round;stroke-dasharray:none;stroke-opacity:1"
       id="path5901"
       width="25.169821"
       height="6.6145835"
       x="117.98354"
       y="36.735832"
       ry="3.3072917"
       class="UnoptimicedTransforms"
       d="m 121.29084,36.735832 h 18.55523 c 1.83224,0 3.30729,1.475052 3.30729,3.307292 0,1.83224 -1.47505,3.307292 -3.30729,3.307292 h -18.55523 c -1.83224,0 -3.3073,-1.475052 -3.3073,-3.307292 0,-1.83224 1.47506,-3.307292 3.3073,-3.307292 z m 64.659,0 h -18.55523 c -1.83224,0 -3.30729,1.475052 -3.30729,3.307292 0,1.83224 1.47505,3.307292 3.30729,3.307292 h 18.55523 c 1.83224,0 3.3073,-1.475052 3.3073,-3.307292 0,-1.83224 -1.47506,-3.307292 -3.3073,-3.307292 z"
       transform="matrix(0.99118054,0,0,1.2361347,-2.6108279,-12.395016)" />
  </g>
</svg>
